<?xml version="1.0" standalone="no"?>
<!DOCTYPE svg PUBLIC "-//W3C//DTD SVG 20010904//EN"
 "http://www.w3.org/TR/2001/REC-SVG-20010904/DTD/svg10.dtd">
<svg version="1.0" xmlns="http://www.w3.org/2000/svg"
 width="484.000000pt" height="515.000000pt" viewBox="0 0 484.000000 515.000000"
 preserveAspectRatio="xMidYMid meet">

<g transform="translate(0.000000,515.000000) scale(0.100000,-0.100000)"
fill="#fff" stroke="none">
<path d="M2126 5125 c-123 -20 -321 -84 -441 -143 -215 -106 -397 -257 -511
-427 -102 -150 -130 -206 -162 -327 -32 -117 -33 -133 -33 -433 l-1 -285 -32
-22 c-41 -28 -82 -75 -103 -118 -13 -26 -18 -60 -18 -135 0 -86 5 -115 34
-205 18 -58 37 -109 41 -115 4 -5 17 -36 29 -69 12 -32 33 -78 47 -102 30 -51
113 -124 163 -144 30 -12 118 -16 176 -8 15 2 25 -7 39 -37 73 -156 225 -423
273 -479 10 -12 34 -42 54 -66 144 -176 312 -300 484 -357 107 -35 311 -44
437 -18 249 50 497 251 689 560 31 50 93 160 138 245 45 85 100 180 123 210
108 142 142 241 143 405 0 98 -3 114 -23 148 -30 47 -58 67 -96 67 l-29 0 7
73 c43 477 30 673 -55 869 -111 253 -319 432 -624 537 -156 54 -274 73 -460
73 -181 0 -290 -17 -458 -73 -223 -75 -413 -212 -534 -387 -58 -83 -119 -225
-139 -327 -21 -105 -28 -360 -15 -505 29 -307 29 -310 -33 -148 -29 76 -46
104 -73 127 l-36 30 6 253 c7 299 18 361 86 503 59 122 145 238 255 343 81 76
215 172 286 204 173 79 227 97 360 123 114 23 373 31 497 16 286 -35 544 -153
744 -339 110 -103 184 -201 253 -337 77 -148 84 -191 94 -569 8 -306 8 -309
31 -327 30 -25 62 -24 95 2 l26 20 0 357 0 357 -34 95 c-43 119 -70 182 -94
217 -119 178 -129 191 -217 276 -195 189 -404 296 -740 379 -108 27 -513 35
-649 13z m-122 -1108 c181 -161 341 -259 549 -336 177 -66 461 -119 735 -137
l104 -6 -7 -72 c-8 -81 -60 -401 -70 -431 -4 -11 12 14 34 55 41 76 82 120
112 120 31 0 78 -60 85 -107 16 -105 -35 -263 -113 -354 -27 -32 -82 -130
-147 -262 -132 -267 -203 -375 -325 -497 -100 -99 -158 -136 -286 -185 -86
-33 -251 -43 -393 -26 -235 29 -446 193 -603 469 -22 40 -39 75 -37 78 3 2 41
-15 84 -39 128 -71 182 -94 309 -130 66 -19 134 -40 150 -47 17 -7 80 -13 145
-13 158 -2 204 22 240 124 11 31 10 42 -5 82 -9 25 -27 55 -39 66 -28 26 -105
41 -215 41 -97 0 -133 -15 -186 -76 l-30 -34 -90 34 c-185 69 -344 171 -477
307 -45 46 -60 71 -73 116 -9 32 -33 108 -54 168 -83 237 -87 262 -40 279 42
14 85 -23 126 -111 20 -40 36 -73 37 -73 1 0 -6 38 -15 84 -34 170 -53 324
-53 451 -1 125 0 132 28 185 46 87 130 189 210 253 37 29 185 96 215 97 7 0
50 -33 95 -73z"/>
<path d="M3234 1447 c-1 -138 -4 -172 -23 -227 -47 -140 -211 -445 -350 -650
-94 -139 -407 -421 -449 -405 -77 29 -346 280 -432 403 -89 127 -173 270 -255
437 -113 230 -120 254 -119 443 0 133 -2 153 -16 149 -21 -7 -368 -102 -540
-148 -463 -126 -755 -261 -851 -392 -63 -84 -129 -266 -159 -433 -12 -72 -30
-366 -30 -516 l0 -108 2410 0 2410 0 0 118 c0 229 -24 522 -50 607 -61 202
-117 322 -177 376 -101 92 -271 177 -501 253 -167 55 -272 85 -649 186 -101
27 -191 53 -200 59 -17 8 -18 -2 -19 -152z"/>
<path d="M2177 1373 c-42 -42 -77 -81 -77 -87 0 -14 139 -186 150 -186 19 0
20 -40 1 -81 -11 -24 -50 -119 -86 -212 l-66 -167 28 -38 c69 -94 261 -272
293 -272 23 0 181 143 252 226 l68 82 -16 48 c-9 27 -23 62 -31 78 -8 15 -36
85 -63 155 -26 69 -51 133 -55 142 -4 11 17 43 69 103 41 47 80 95 86 107 14
24 7 33 -85 121 l-60 58 -165 0 -165 0 -78 -77z"/>
</g>
</svg>
