<?xml version="1.0" standalone="no"?>
<!DOCTYPE svg PUBLIC "-//W3C//DTD SVG 20010904//EN"
 "http://www.w3.org/TR/2001/REC-SVG-20010904/DTD/svg10.dtd">
<svg version="1.0" xmlns="http://www.w3.org/2000/svg"
 width="452.000000pt" height="452.000000pt" viewBox="0 0 452.000000 452.000000"
 preserveAspectRatio="xMidYMid meet">

<g transform="translate(0.000000,452.000000) scale(0.100000,-0.100000)"
fill="#fff" stroke="none">
<path d="M3944 3965 c-83 -23 -3511 -1494 -3562 -1529 -117 -78 -140 -205 -58
-317 48 -66 105 -91 546 -239 212 -71 391 -133 399 -138 7 -4 75 -212 150
-462 169 -560 184 -606 221 -663 35 -56 63 -75 122 -83 77 -11 111 13 382 264
l249 231 36 -28 c685 -534 773 -601 816 -615 59 -20 159 -20 217 0 25 8 64 31
87 50 86 74 64 -21 391 1684 200 1040 300 1584 300 1626 0 70 -18 125 -53 162
-54 59 -155 82 -243 57z m119 -195 c7 -18 -68 -427 -287 -1570 -163 -850 -299
-1556 -302 -1569 -3 -13 -20 -39 -39 -58 -37 -37 -73 -42 -128 -19 -18 7 -228
166 -467 353 -239 186 -499 387 -578 447 l-143 107 44 52 c24 29 339 400 701
825 812 956 746 875 746 918 0 51 -39 87 -88 82 -29 -3 -264 -155 -1104 -716
-588 -392 -1073 -712 -1078 -712 -6 0 -190 61 -408 135 -462 158 -522 189
-458 240 23 19 3434 1485 3501 1505 49 14 79 8 88 -20z m-1080 -1017 c-28 -32
-281 -330 -564 -663 l-514 -606 -74 -337 c-41 -186 -78 -334 -82 -330 -17 18
-290 946 -281 955 16 16 1546 1037 1555 1037 5 1 -13 -25 -40 -56z m-833
-1538 l99 -75 -145 -136 c-80 -75 -146 -135 -148 -133 -5 5 86 419 92 419 1 0
48 -34 102 -75z"/>
</g>
</svg>
